<mxfile host="app.diagrams.net" modified="2020-11-28T15:49:02.753Z" agent="5.0 (Macintosh; Intel Mac OS X 10_15_5) AppleWebKit/537.36 (KHTML, like Gecko) Chrome/86.0.4240.193 Safari/537.36" etag="Sp2FwufhfcmX8sjx0dtn" version="13.10.4" type="github">
  <diagram id="-rWVA9uq7CtCZiVyTTVC" name="Static &amp; Dynamic">
    <mxGraphModel dx="946" dy="570" grid="1" gridSize="10" guides="1" tooltips="1" connect="1" arrows="1" fold="1" page="1" pageScale="1" pageWidth="827" pageHeight="1169" math="0" shadow="0">
      <root>
        <mxCell id="0" />
        <mxCell id="1" parent="0" />
        <mxCell id="smryZBDBIvgr8t-cqEXv-26" value="" style="rounded=0;whiteSpace=wrap;html=1;strokeColor=#000000;" vertex="1" parent="1">
          <mxGeometry x="260" y="490" width="200" height="140" as="geometry" />
        </mxCell>
        <mxCell id="smryZBDBIvgr8t-cqEXv-2" value="&lt;h1&gt;Static vs Dynamic Memory Alloaction&lt;/h1&gt;&lt;p&gt;1. Main Memory&lt;/p&gt;&lt;p&gt;2. Program use Memory&lt;/p&gt;&lt;p&gt;3. Static Allocation&lt;/p&gt;&lt;p&gt;4. Dynamic Allocation&lt;/p&gt;" style="text;html=1;strokeColor=none;fillColor=none;spacing=5;spacingTop=-20;whiteSpace=wrap;overflow=hidden;rounded=0;" vertex="1" parent="1">
          <mxGeometry x="30" y="20" width="550" height="150" as="geometry" />
        </mxCell>
        <mxCell id="smryZBDBIvgr8t-cqEXv-8" value="" style="edgeStyle=orthogonalEdgeStyle;rounded=0;orthogonalLoop=1;jettySize=auto;html=1;" edge="1" parent="1" source="smryZBDBIvgr8t-cqEXv-3" target="smryZBDBIvgr8t-cqEXv-7">
          <mxGeometry relative="1" as="geometry" />
        </mxCell>
        <mxCell id="smryZBDBIvgr8t-cqEXv-3" value="" style="rounded=0;whiteSpace=wrap;html=1;" vertex="1" parent="1">
          <mxGeometry x="260" y="70" width="190" height="320" as="geometry" />
        </mxCell>
        <mxCell id="smryZBDBIvgr8t-cqEXv-4" value="0" style="text;html=1;strokeColor=none;fillColor=none;align=center;verticalAlign=middle;whiteSpace=wrap;rounded=0;" vertex="1" parent="1">
          <mxGeometry x="260" y="370" width="40" height="20" as="geometry" />
        </mxCell>
        <mxCell id="smryZBDBIvgr8t-cqEXv-5" value="65535" style="text;html=1;strokeColor=none;fillColor=none;align=center;verticalAlign=middle;whiteSpace=wrap;rounded=0;" vertex="1" parent="1">
          <mxGeometry x="410" y="70" width="40" height="20" as="geometry" />
        </mxCell>
        <mxCell id="smryZBDBIvgr8t-cqEXv-6" value="0 - 65535 = 64kb" style="text;html=1;strokeColor=none;fillColor=none;align=center;verticalAlign=middle;whiteSpace=wrap;rounded=0;" vertex="1" parent="1">
          <mxGeometry x="290" y="220" width="130" height="20" as="geometry" />
        </mxCell>
        <mxCell id="smryZBDBIvgr8t-cqEXv-7" value="" style="rounded=0;whiteSpace=wrap;html=1;" vertex="1" parent="1">
          <mxGeometry x="530" y="70" width="190" height="320" as="geometry" />
        </mxCell>
        <mxCell id="smryZBDBIvgr8t-cqEXv-10" value="0" style="text;html=1;fillColor=none;align=center;verticalAlign=middle;whiteSpace=wrap;rounded=0;strokeColor=#000000;" vertex="1" parent="1">
          <mxGeometry x="530" y="370" width="40" height="20" as="geometry" />
        </mxCell>
        <mxCell id="smryZBDBIvgr8t-cqEXv-11" value="1" style="text;html=1;fillColor=none;align=center;verticalAlign=middle;whiteSpace=wrap;rounded=0;strokeColor=#000000;" vertex="1" parent="1">
          <mxGeometry x="570" y="370" width="40" height="20" as="geometry" />
        </mxCell>
        <mxCell id="smryZBDBIvgr8t-cqEXv-13" value="2" style="text;html=1;fillColor=none;align=center;verticalAlign=middle;whiteSpace=wrap;rounded=0;strokeColor=#000000;" vertex="1" parent="1">
          <mxGeometry x="610" y="370" width="40" height="20" as="geometry" />
        </mxCell>
        <mxCell id="smryZBDBIvgr8t-cqEXv-14" value="Assume this is a addresses Segment.&amp;nbsp;&lt;br&gt;It store in a linear sequences, 2 after 1 after 0. Each address store it&#39;s own byte." style="text;html=1;strokeColor=none;fillColor=none;align=center;verticalAlign=middle;whiteSpace=wrap;rounded=0;" vertex="1" parent="1">
          <mxGeometry x="554" y="120" width="136" height="210" as="geometry" />
        </mxCell>
        <mxCell id="smryZBDBIvgr8t-cqEXv-16" value="" style="edgeStyle=orthogonalEdgeStyle;rounded=0;orthogonalLoop=1;jettySize=auto;html=1;" edge="1" parent="1" source="smryZBDBIvgr8t-cqEXv-15" target="smryZBDBIvgr8t-cqEXv-3">
          <mxGeometry relative="1" as="geometry" />
        </mxCell>
        <mxCell id="smryZBDBIvgr8t-cqEXv-15" value="Main Memory" style="text;html=1;strokeColor=none;fillColor=none;align=center;verticalAlign=middle;whiteSpace=wrap;rounded=0;" vertex="1" parent="1">
          <mxGeometry x="80" y="220" width="90" height="20" as="geometry" />
        </mxCell>
        <mxCell id="smryZBDBIvgr8t-cqEXv-19" value="" style="edgeStyle=orthogonalEdgeStyle;rounded=0;orthogonalLoop=1;jettySize=auto;html=1;" edge="1" parent="1" source="smryZBDBIvgr8t-cqEXv-17" target="smryZBDBIvgr8t-cqEXv-18">
          <mxGeometry relative="1" as="geometry" />
        </mxCell>
        <mxCell id="smryZBDBIvgr8t-cqEXv-17" value="Main Memory" style="text;html=1;strokeColor=none;fillColor=none;align=center;verticalAlign=middle;whiteSpace=wrap;rounded=0;" vertex="1" parent="1">
          <mxGeometry x="315" y="420" width="90" height="20" as="geometry" />
        </mxCell>
        <mxCell id="smryZBDBIvgr8t-cqEXv-18" value="" style="whiteSpace=wrap;html=1;strokeColor=#000000;" vertex="1" parent="1">
          <mxGeometry x="260" y="490" width="200" height="340" as="geometry" />
        </mxCell>
        <mxCell id="smryZBDBIvgr8t-cqEXv-20" value="Code Section (Program | App etc..)" style="rounded=0;whiteSpace=wrap;html=1;strokeColor=#000000;" vertex="1" parent="1">
          <mxGeometry x="260" y="770" width="200" height="80" as="geometry" />
        </mxCell>
        <mxCell id="smryZBDBIvgr8t-cqEXv-22" value="0" style="text;html=1;strokeColor=none;fillColor=none;align=center;verticalAlign=middle;whiteSpace=wrap;rounded=0;" vertex="1" parent="1">
          <mxGeometry x="260" y="850" width="40" height="20" as="geometry" />
        </mxCell>
        <mxCell id="smryZBDBIvgr8t-cqEXv-23" value="65535" style="text;html=1;strokeColor=none;fillColor=none;align=center;verticalAlign=middle;whiteSpace=wrap;rounded=0;" vertex="1" parent="1">
          <mxGeometry x="420" y="470" width="40" height="20" as="geometry" />
        </mxCell>
        <mxCell id="smryZBDBIvgr8t-cqEXv-24" value="" style="rounded=0;whiteSpace=wrap;html=1;strokeColor=#000000;" vertex="1" parent="1">
          <mxGeometry x="260" y="630" width="200" height="140" as="geometry" />
        </mxCell>
        <mxCell id="smryZBDBIvgr8t-cqEXv-29" value="" style="rounded=0;whiteSpace=wrap;html=1;strokeColor=#000000;" vertex="1" parent="1">
          <mxGeometry x="260" y="490" width="200" height="140" as="geometry" />
        </mxCell>
        <mxCell id="smryZBDBIvgr8t-cqEXv-30" value="假設" style="text;html=1;strokeColor=none;fillColor=none;align=center;verticalAlign=middle;whiteSpace=wrap;rounded=0;" vertex="1" parent="1">
          <mxGeometry x="560" y="490" width="200" height="20" as="geometry" />
        </mxCell>
        <mxCell id="smryZBDBIvgr8t-cqEXv-34" value="a 2 bytes" style="rounded=0;whiteSpace=wrap;html=1;strokeColor=#000000;" vertex="1" parent="1">
          <mxGeometry x="270" y="736" width="60" height="30" as="geometry" />
        </mxCell>
        <mxCell id="smryZBDBIvgr8t-cqEXv-35" value="b 4 bytes" style="rounded=0;whiteSpace=wrap;html=1;strokeColor=#000000;" vertex="1" parent="1">
          <mxGeometry x="335" y="736" width="60" height="30" as="geometry" />
        </mxCell>
        <mxCell id="smryZBDBIvgr8t-cqEXv-36" value="&lt;h1 style=&quot;font-size: 16px&quot;&gt;def main():&lt;br&gt;&amp;nbsp; a = 1 # 2 bytes&lt;br&gt;&amp;nbsp; b = 3.2 # 4 bytes&lt;br&gt;&amp;nbsp; func1()&lt;/h1&gt;&lt;h1 style=&quot;font-size: 16px&quot;&gt;&lt;br&gt;def func1():&lt;br&gt;&amp;nbsp; x = 2&lt;br&gt;&amp;nbsp; func2()&lt;br&gt;&lt;br&gt;def func2():&lt;br&gt;&amp;nbsp; y = 3&lt;/h1&gt;" style="text;html=1;strokeColor=none;fillColor=none;spacing=5;spacingTop=-20;whiteSpace=wrap;overflow=hidden;rounded=0;" vertex="1" parent="1">
          <mxGeometry x="535" y="510" width="275" height="310" as="geometry" />
        </mxCell>
        <mxCell id="smryZBDBIvgr8t-cqEXv-37" value="func2()" style="rounded=0;whiteSpace=wrap;html=1;strokeColor=#000000;" vertex="1" parent="1">
          <mxGeometry x="265" y="780" width="55" height="20" as="geometry" />
        </mxCell>
        <mxCell id="smryZBDBIvgr8t-cqEXv-40" value="func1()" style="rounded=0;whiteSpace=wrap;html=1;strokeColor=#000000;" vertex="1" parent="1">
          <mxGeometry x="330" y="780" width="55" height="20" as="geometry" />
        </mxCell>
        <mxCell id="smryZBDBIvgr8t-cqEXv-41" value="main()" style="rounded=0;whiteSpace=wrap;html=1;strokeColor=#000000;" vertex="1" parent="1">
          <mxGeometry x="395" y="780" width="55" height="20" as="geometry" />
        </mxCell>
        <mxCell id="smryZBDBIvgr8t-cqEXv-43" value="" style="edgeStyle=orthogonalEdgeStyle;rounded=0;orthogonalLoop=1;jettySize=auto;html=1;" edge="1" parent="1" source="smryZBDBIvgr8t-cqEXv-42">
          <mxGeometry relative="1" as="geometry">
            <mxPoint x="259" y="639" as="targetPoint" />
          </mxGeometry>
        </mxCell>
        <mxCell id="smryZBDBIvgr8t-cqEXv-42" value="Stack" style="text;html=1;strokeColor=none;fillColor=none;align=center;verticalAlign=middle;whiteSpace=wrap;rounded=0;" vertex="1" parent="1">
          <mxGeometry x="105" y="629" width="40" height="20" as="geometry" />
        </mxCell>
        <mxCell id="smryZBDBIvgr8t-cqEXv-45" style="edgeStyle=orthogonalEdgeStyle;rounded=0;orthogonalLoop=1;jettySize=auto;html=1;entryX=0.005;entryY=0.143;entryDx=0;entryDy=0;entryPerimeter=0;" edge="1" parent="1" source="smryZBDBIvgr8t-cqEXv-44" target="smryZBDBIvgr8t-cqEXv-29">
          <mxGeometry relative="1" as="geometry" />
        </mxCell>
        <mxCell id="smryZBDBIvgr8t-cqEXv-44" value="Heap" style="text;html=1;strokeColor=none;fillColor=none;align=center;verticalAlign=middle;whiteSpace=wrap;rounded=0;" vertex="1" parent="1">
          <mxGeometry x="105" y="500" width="40" height="20" as="geometry" />
        </mxCell>
        <mxCell id="smryZBDBIvgr8t-cqEXv-49" style="edgeStyle=orthogonalEdgeStyle;rounded=0;orthogonalLoop=1;jettySize=auto;html=1;entryX=-0.02;entryY=0.829;entryDx=0;entryDy=0;entryPerimeter=0;" edge="1" parent="1" source="smryZBDBIvgr8t-cqEXv-48" target="smryZBDBIvgr8t-cqEXv-24">
          <mxGeometry relative="1" as="geometry" />
        </mxCell>
        <mxCell id="smryZBDBIvgr8t-cqEXv-48" value="Main()" style="text;html=1;strokeColor=none;fillColor=none;align=center;verticalAlign=middle;whiteSpace=wrap;rounded=0;" vertex="1" parent="1">
          <mxGeometry x="105" y="736" width="40" height="20" as="geometry" />
        </mxCell>
        <mxCell id="smryZBDBIvgr8t-cqEXv-52" style="edgeStyle=orthogonalEdgeStyle;rounded=0;orthogonalLoop=1;jettySize=auto;html=1;entryX=0;entryY=0.607;entryDx=0;entryDy=0;entryPerimeter=0;" edge="1" parent="1" source="smryZBDBIvgr8t-cqEXv-50" target="smryZBDBIvgr8t-cqEXv-24">
          <mxGeometry relative="1" as="geometry" />
        </mxCell>
        <mxCell id="smryZBDBIvgr8t-cqEXv-50" value="func1()" style="text;html=1;strokeColor=none;fillColor=none;align=center;verticalAlign=middle;whiteSpace=wrap;rounded=0;" vertex="1" parent="1">
          <mxGeometry x="105" y="705" width="40" height="20" as="geometry" />
        </mxCell>
        <mxCell id="smryZBDBIvgr8t-cqEXv-51" value="x 2 bytes" style="rounded=0;whiteSpace=wrap;html=1;strokeColor=#000000;" vertex="1" parent="1">
          <mxGeometry x="270" y="700" width="60" height="30" as="geometry" />
        </mxCell>
        <mxCell id="smryZBDBIvgr8t-cqEXv-53" value="y 2 bytes" style="rounded=0;whiteSpace=wrap;html=1;strokeColor=#000000;" vertex="1" parent="1">
          <mxGeometry x="270" y="663" width="60" height="30" as="geometry" />
        </mxCell>
        <mxCell id="smryZBDBIvgr8t-cqEXv-55" style="edgeStyle=orthogonalEdgeStyle;rounded=0;orthogonalLoop=1;jettySize=auto;html=1;entryX=-0.01;entryY=0.35;entryDx=0;entryDy=0;entryPerimeter=0;" edge="1" parent="1" source="smryZBDBIvgr8t-cqEXv-54" target="smryZBDBIvgr8t-cqEXv-24">
          <mxGeometry relative="1" as="geometry" />
        </mxCell>
        <mxCell id="smryZBDBIvgr8t-cqEXv-54" value="func2()" style="text;html=1;strokeColor=none;fillColor=none;align=center;verticalAlign=middle;whiteSpace=wrap;rounded=0;" vertex="1" parent="1">
          <mxGeometry x="105" y="669" width="40" height="20" as="geometry" />
        </mxCell>
        <mxCell id="smryZBDBIvgr8t-cqEXv-56" value="" style="rounded=0;whiteSpace=wrap;html=1;strokeColor=#000000;" vertex="1" parent="1">
          <mxGeometry x="235" y="990" width="200" height="140" as="geometry" />
        </mxCell>
        <mxCell id="smryZBDBIvgr8t-cqEXv-57" value="" style="edgeStyle=orthogonalEdgeStyle;rounded=0;orthogonalLoop=1;jettySize=auto;html=1;" edge="1" parent="1" source="smryZBDBIvgr8t-cqEXv-58" target="smryZBDBIvgr8t-cqEXv-59">
          <mxGeometry relative="1" as="geometry" />
        </mxCell>
        <mxCell id="smryZBDBIvgr8t-cqEXv-58" value="Main Memory" style="text;html=1;strokeColor=none;fillColor=none;align=center;verticalAlign=middle;whiteSpace=wrap;rounded=0;" vertex="1" parent="1">
          <mxGeometry x="290" y="920" width="90" height="20" as="geometry" />
        </mxCell>
        <mxCell id="smryZBDBIvgr8t-cqEXv-59" value="" style="whiteSpace=wrap;html=1;strokeColor=#000000;" vertex="1" parent="1">
          <mxGeometry x="235" y="990" width="200" height="340" as="geometry" />
        </mxCell>
        <mxCell id="smryZBDBIvgr8t-cqEXv-60" value="Code Section (Program | App etc..)" style="rounded=0;whiteSpace=wrap;html=1;strokeColor=#000000;" vertex="1" parent="1">
          <mxGeometry x="235" y="1270" width="200" height="80" as="geometry" />
        </mxCell>
        <mxCell id="smryZBDBIvgr8t-cqEXv-61" value="0" style="text;html=1;strokeColor=none;fillColor=none;align=center;verticalAlign=middle;whiteSpace=wrap;rounded=0;" vertex="1" parent="1">
          <mxGeometry x="235" y="1350" width="40" height="20" as="geometry" />
        </mxCell>
        <mxCell id="smryZBDBIvgr8t-cqEXv-62" value="65535" style="text;html=1;strokeColor=none;fillColor=none;align=center;verticalAlign=middle;whiteSpace=wrap;rounded=0;" vertex="1" parent="1">
          <mxGeometry x="395" y="970" width="40" height="20" as="geometry" />
        </mxCell>
        <mxCell id="smryZBDBIvgr8t-cqEXv-63" value="" style="rounded=0;whiteSpace=wrap;html=1;strokeColor=#000000;" vertex="1" parent="1">
          <mxGeometry x="235" y="1130" width="200" height="140" as="geometry" />
        </mxCell>
        <mxCell id="smryZBDBIvgr8t-cqEXv-64" value="" style="rounded=0;whiteSpace=wrap;html=1;strokeColor=#000000;" vertex="1" parent="1">
          <mxGeometry x="235" y="990" width="200" height="140" as="geometry" />
        </mxCell>
        <mxCell id="smryZBDBIvgr8t-cqEXv-65" value="假設" style="text;html=1;strokeColor=none;fillColor=none;align=center;verticalAlign=middle;whiteSpace=wrap;rounded=0;" vertex="1" parent="1">
          <mxGeometry x="535" y="990" width="200" height="20" as="geometry" />
        </mxCell>
        <mxCell id="smryZBDBIvgr8t-cqEXv-66" value="a 2 bytes" style="rounded=0;whiteSpace=wrap;html=1;strokeColor=#000000;" vertex="1" parent="1">
          <mxGeometry x="245" y="1236" width="60" height="30" as="geometry" />
        </mxCell>
        <mxCell id="smryZBDBIvgr8t-cqEXv-67" value="b 4 bytes" style="rounded=0;whiteSpace=wrap;html=1;strokeColor=#000000;" vertex="1" parent="1">
          <mxGeometry x="310" y="1236" width="60" height="30" as="geometry" />
        </mxCell>
        <mxCell id="smryZBDBIvgr8t-cqEXv-68" value="func2()" style="rounded=0;whiteSpace=wrap;html=1;strokeColor=#000000;" vertex="1" parent="1">
          <mxGeometry x="240" y="1280" width="55" height="20" as="geometry" />
        </mxCell>
        <mxCell id="smryZBDBIvgr8t-cqEXv-69" value="func1()" style="rounded=0;whiteSpace=wrap;html=1;strokeColor=#000000;" vertex="1" parent="1">
          <mxGeometry x="305" y="1280" width="55" height="20" as="geometry" />
        </mxCell>
        <mxCell id="smryZBDBIvgr8t-cqEXv-70" value="main()" style="rounded=0;whiteSpace=wrap;html=1;strokeColor=#000000;" vertex="1" parent="1">
          <mxGeometry x="370" y="1280" width="55" height="20" as="geometry" />
        </mxCell>
        <mxCell id="smryZBDBIvgr8t-cqEXv-71" value="" style="edgeStyle=orthogonalEdgeStyle;rounded=0;orthogonalLoop=1;jettySize=auto;html=1;" edge="1" parent="1" source="smryZBDBIvgr8t-cqEXv-72">
          <mxGeometry relative="1" as="geometry">
            <mxPoint x="234" y="1139" as="targetPoint" />
          </mxGeometry>
        </mxCell>
        <mxCell id="smryZBDBIvgr8t-cqEXv-72" value="Stack" style="text;html=1;strokeColor=none;fillColor=none;align=center;verticalAlign=middle;whiteSpace=wrap;rounded=0;" vertex="1" parent="1">
          <mxGeometry x="80" y="1129" width="40" height="20" as="geometry" />
        </mxCell>
        <mxCell id="smryZBDBIvgr8t-cqEXv-73" style="edgeStyle=orthogonalEdgeStyle;rounded=0;orthogonalLoop=1;jettySize=auto;html=1;entryX=0.005;entryY=0.143;entryDx=0;entryDy=0;entryPerimeter=0;" edge="1" parent="1" source="smryZBDBIvgr8t-cqEXv-74" target="smryZBDBIvgr8t-cqEXv-64">
          <mxGeometry relative="1" as="geometry" />
        </mxCell>
        <mxCell id="smryZBDBIvgr8t-cqEXv-74" value="Heap" style="text;html=1;strokeColor=none;fillColor=none;align=center;verticalAlign=middle;whiteSpace=wrap;rounded=0;" vertex="1" parent="1">
          <mxGeometry x="80" y="1000" width="40" height="20" as="geometry" />
        </mxCell>
        <mxCell id="smryZBDBIvgr8t-cqEXv-75" style="edgeStyle=orthogonalEdgeStyle;rounded=0;orthogonalLoop=1;jettySize=auto;html=1;entryX=-0.02;entryY=0.829;entryDx=0;entryDy=0;entryPerimeter=0;" edge="1" parent="1" source="smryZBDBIvgr8t-cqEXv-76" target="smryZBDBIvgr8t-cqEXv-63">
          <mxGeometry relative="1" as="geometry" />
        </mxCell>
        <mxCell id="smryZBDBIvgr8t-cqEXv-76" value="Main()" style="text;html=1;strokeColor=none;fillColor=none;align=center;verticalAlign=middle;whiteSpace=wrap;rounded=0;" vertex="1" parent="1">
          <mxGeometry x="80" y="1236" width="40" height="20" as="geometry" />
        </mxCell>
        <mxCell id="smryZBDBIvgr8t-cqEXv-77" style="edgeStyle=orthogonalEdgeStyle;rounded=0;orthogonalLoop=1;jettySize=auto;html=1;entryX=0;entryY=0.607;entryDx=0;entryDy=0;entryPerimeter=0;" edge="1" parent="1" source="smryZBDBIvgr8t-cqEXv-78" target="smryZBDBIvgr8t-cqEXv-63">
          <mxGeometry relative="1" as="geometry" />
        </mxCell>
        <mxCell id="smryZBDBIvgr8t-cqEXv-78" value="func1()" style="text;html=1;strokeColor=none;fillColor=none;align=center;verticalAlign=middle;whiteSpace=wrap;rounded=0;" vertex="1" parent="1">
          <mxGeometry x="80" y="1205" width="40" height="20" as="geometry" />
        </mxCell>
        <mxCell id="smryZBDBIvgr8t-cqEXv-79" value="x 2 bytes" style="rounded=0;whiteSpace=wrap;html=1;strokeColor=#000000;" vertex="1" parent="1">
          <mxGeometry x="245" y="1200" width="60" height="30" as="geometry" />
        </mxCell>
        <mxCell id="smryZBDBIvgr8t-cqEXv-80" value="y 2 bytes" style="rounded=0;whiteSpace=wrap;html=1;strokeColor=#000000;" vertex="1" parent="1">
          <mxGeometry x="245" y="1163" width="60" height="30" as="geometry" />
        </mxCell>
        <mxCell id="smryZBDBIvgr8t-cqEXv-81" style="edgeStyle=orthogonalEdgeStyle;rounded=0;orthogonalLoop=1;jettySize=auto;html=1;entryX=-0.01;entryY=0.35;entryDx=0;entryDy=0;entryPerimeter=0;" edge="1" parent="1" source="smryZBDBIvgr8t-cqEXv-82" target="smryZBDBIvgr8t-cqEXv-63">
          <mxGeometry relative="1" as="geometry" />
        </mxCell>
        <mxCell id="smryZBDBIvgr8t-cqEXv-82" value="func2()" style="text;html=1;strokeColor=none;fillColor=none;align=center;verticalAlign=middle;whiteSpace=wrap;rounded=0;" vertex="1" parent="1">
          <mxGeometry x="80" y="1169" width="40" height="20" as="geometry" />
        </mxCell>
      </root>
    </mxGraphModel>
  </diagram>
</mxfile>
